<svg xmlns="http://www.w3.org/2000/svg" xmlns:xlink="http://www.w3.org/1999/xlink" width="100%" height="100%">
  <defs>
    <pattern id="pattern" width="41" height="41" viewBox="0 0 40,40" patternUnits="userSpaceOnUse" patternTransform="rotate(43) ">
      <rect id="pattern-background" width="400%" height="400%" fill="#2a4365"/>
      <path fill="#1a202c" d="M0 20 h0.17 v1 h-0.17 zM6.67 20 h0.17 v1 h-0.17 zM13.33 20 h0.17 v1 h-0.17 zM20 20 h0.17 v1 h-0.17 zM26.67 20 h0.17 v1 h-0.17 zM33.33 20 h0.17 v1 h-0.17 zM40 20 h0.17 v1 h-0.17 zM46.67 20 h0.17 v1 h-0.17 zM53.33 20 h0.17 v1 h-0.17 zM60 20 h0.17 v1 h-0.17 zM66.67 20 h0.17 v1 h-0.17 zM73.33 20 h0.17 v1 h-0.17 zM40 20 h0.17 v1 h-0.17 z"/>
      <path fill="#ecc94b" d="M3.33 20 h0.17 v1 h-0.17 zM10 20 h0.17 v1 h-0.17 zM16.67 20 h0.17 v1 h-0.17 zM23.33 20 h0.17 v1 h-0.17 zM30 20 h0.17 v1 h-0.17 zM36.67 20 h0.17 v1 h-0.17 zM43.33 20 h0.17 v1 h-0.17 zM50 20 h0.17 v1 h-0.17 zM56.67 20 h0.17 v1 h-0.17 zM63.33 20 h0.17 v1 h-0.17 zM70 20 h0.17 v1 h-0.17 zM76.67 20 h0.17 v1 h-0.17 z"/>
    </pattern>
  </defs>
  <rect fill="url(#pattern)" height="100%" width="100%"/>
</svg>