<svg xmlns="http://www.w3.org/2000/svg" xmlns:xlink="http://www.w3.org/1999/xlink" width="100%" height="100%">
  <defs>
    <pattern id="pattern" width="30" height="30" viewBox="0 0 40,40" patternUnits="userSpaceOnUse" patternTransform="rotate(45) ">
      <rect id="pattern-background" width="400%" height="400%" fill="rgba(45, 55, 72,1)"/>
      <path fill="rgba(144, 205, 244,1)" d="M-1 20 v20 h2 v-20zM4 20 v20 h2 v-20zM9 20 v20 h2 v-20zM14 20 v20 h2 v-20zM19 20 v20 h2 v-20zM24 20 v20 h2 v-20zM29 20 v20 h2 v-20zM34 20 v20 h2 v-20zM39 20 v20 h2v-20z"/>
      <path fill="#2a4365" d="M-10 29.5 h60 v1 h-60z"/>
      <path fill="rgba(144, 205, 244,1)" d="M1.5 0 v40 h2 v-40zM6.5 0 v40 h2 v-40zM11.5 0 v40 h2 v-40zM16.5 0 v40 h2 v-40zM21.5 0 v40 h2 v-40zM26.5 0 v40 h2 v-40zM31.5 0 v40 h2 v-40zM36.5 0 v40 h2 v-40z"/>
      <path fill="#2a4365" d="M-10 9.5 h60 v1 h-60z"/>
      <path fill="rgba(144, 205, 244,1)" d="M-1 0 v20 h2 v-20zM4 0 v20 h2 v-20zM9 0 v20 h2 v-20zM14 0 v20 h2 v-20zM19 0 v20 h2 v-20zM24 0 v20 h2 v-20zM29 0 v20 h2 v-20zM34 0 v20 h2 v-20zM39 0 v20 h2 v-20z"/>
    </pattern>
  </defs>
  <rect fill="url(#pattern)" height="100%" width="100%"/>
</svg>